<mxfile host="app.diagrams.net" agent="Mozilla/5.0 (Windows NT 10.0; Win64; x64) AppleWebKit/537.36 (KHTML, like Gecko) Chrome/137.0.0.0 Safari/537.36 Edg/137.0.0.0" version="27.1.4">
  <diagram name="第 1 页" id="TxK3n14NosuPDDG384zo">
    <mxGraphModel dx="1254" dy="1973" grid="1" gridSize="10" guides="1" tooltips="1" connect="1" arrows="1" fold="1" page="1" pageScale="1" pageWidth="827" pageHeight="1169" math="0" shadow="0">
      <root>
        <mxCell id="0" />
        <mxCell id="1" parent="0" />
        <mxCell id="ijmsaIecXSRghlYVQ3g4-3" style="edgeStyle=orthogonalEdgeStyle;rounded=0;orthogonalLoop=1;jettySize=auto;html=1;entryX=0.5;entryY=1;entryDx=0;entryDy=0;" edge="1" parent="1" source="ijmsaIecXSRghlYVQ3g4-1" target="ijmsaIecXSRghlYVQ3g4-2">
          <mxGeometry relative="1" as="geometry" />
        </mxCell>
        <mxCell id="ijmsaIecXSRghlYVQ3g4-7" style="edgeStyle=orthogonalEdgeStyle;rounded=0;orthogonalLoop=1;jettySize=auto;html=1;entryX=0;entryY=0.5;entryDx=0;entryDy=0;" edge="1" parent="1" source="ijmsaIecXSRghlYVQ3g4-1" target="ijmsaIecXSRghlYVQ3g4-6">
          <mxGeometry relative="1" as="geometry" />
        </mxCell>
        <mxCell id="ijmsaIecXSRghlYVQ3g4-10" style="edgeStyle=orthogonalEdgeStyle;rounded=0;orthogonalLoop=1;jettySize=auto;html=1;" edge="1" parent="1" source="ijmsaIecXSRghlYVQ3g4-1" target="ijmsaIecXSRghlYVQ3g4-9">
          <mxGeometry relative="1" as="geometry" />
        </mxCell>
        <mxCell id="ijmsaIecXSRghlYVQ3g4-13" style="edgeStyle=orthogonalEdgeStyle;rounded=0;orthogonalLoop=1;jettySize=auto;html=1;" edge="1" parent="1" source="ijmsaIecXSRghlYVQ3g4-1" target="ijmsaIecXSRghlYVQ3g4-12">
          <mxGeometry relative="1" as="geometry" />
        </mxCell>
        <mxCell id="ijmsaIecXSRghlYVQ3g4-1" value="java" style="text;html=1;align=center;verticalAlign=middle;resizable=0;points=[];autosize=1;strokeColor=default;fillColor=none;" vertex="1" parent="1">
          <mxGeometry x="395" y="338" width="50" height="30" as="geometry" />
        </mxCell>
        <mxCell id="ijmsaIecXSRghlYVQ3g4-2" value="关键字" style="rounded=1;whiteSpace=wrap;html=1;" vertex="1" parent="1">
          <mxGeometry x="360" y="190" width="120" height="40" as="geometry" />
        </mxCell>
        <mxCell id="ijmsaIecXSRghlYVQ3g4-6" value="数据结构" style="rounded=1;whiteSpace=wrap;html=1;" vertex="1" parent="1">
          <mxGeometry x="590" y="331.5" width="120" height="43" as="geometry" />
        </mxCell>
        <mxCell id="ijmsaIecXSRghlYVQ3g4-9" value="多线程、JUC" style="rounded=1;whiteSpace=wrap;html=1;" vertex="1" parent="1">
          <mxGeometry x="360" y="480" width="120" height="40" as="geometry" />
        </mxCell>
        <mxCell id="ijmsaIecXSRghlYVQ3g4-12" value="多线程、JUC" style="rounded=1;whiteSpace=wrap;html=1;" vertex="1" parent="1">
          <mxGeometry x="130" y="331.5" width="120" height="43" as="geometry" />
        </mxCell>
        <mxCell id="ijmsaIecXSRghlYVQ3g4-15" value="this:&lt;div&gt;可以作用在成员方法，构造方法&lt;/div&gt;&lt;div&gt;作为成员变量，&lt;span style=&quot;background-color: transparent; color: light-dark(rgb(0, 0, 0), rgb(255, 255, 255));&quot;&gt;属于方法，不是实例对象，调用这个方法，才知道具体指向。指向调用它的对象&lt;/span&gt;&lt;/div&gt;&lt;div&gt;&lt;span style=&quot;background-color: transparent; color: light-dark(rgb(0, 0, 0), rgb(255, 255, 255));&quot;&gt;作为构造器调用使用，在无参构造中调用有参构造只能放在第一行&lt;/span&gt;&lt;/div&gt;" style="rounded=1;whiteSpace=wrap;html=1;align=left;" vertex="1" parent="1">
          <mxGeometry x="80" y="-180" width="220" height="130" as="geometry" />
        </mxCell>
        <mxCell id="ijmsaIecXSRghlYVQ3g4-16" value="this:&lt;div&gt;可以作用在成员方法，构造方法&lt;/div&gt;&lt;div&gt;作为成员变量，&lt;span style=&quot;background-color: transparent; color: light-dark(rgb(0, 0, 0), rgb(255, 255, 255));&quot;&gt;属于方法，不是实例对象，调用这个方法，才知道具体指向。指向调用它的对象&lt;/span&gt;&lt;/div&gt;&lt;div&gt;&lt;span style=&quot;background-color: transparent; color: light-dark(rgb(0, 0, 0), rgb(255, 255, 255));&quot;&gt;作为构造器调用使用，在无参构造中调用有参构造只能放在第一行&lt;/span&gt;&lt;/div&gt;" style="rounded=1;whiteSpace=wrap;html=1;align=left;" vertex="1" parent="1">
          <mxGeometry x="340" y="-180" width="220" height="130" as="geometry" />
        </mxCell>
      </root>
    </mxGraphModel>
  </diagram>
</mxfile>
